<?xml version="1.0" standalone="no"?>
<!DOCTYPE svg PUBLIC "-//W3C//DTD SVG 20010904//EN"
 "http://www.w3.org/TR/2001/REC-SVG-20010904/DTD/svg10.dtd">
<svg version="1.0" xmlns="http://www.w3.org/2000/svg"
 width="1920.000000pt" height="1080.000000pt" viewBox="0 0 1920.000000 1080.000000"
 preserveAspectRatio="xMidYMid meet">

<g transform="translate(0.000000,1080.000000) scale(0.100000,-0.100000)"
fill="#000000" stroke="none">
<path d="M0 5400 l0 -5400 4374 0 c3975 0 4375 1 4387 16 10 13 10 19 0 36 -7
11 -10 23 -6 26 3 4 10 1 14 -7 6 -10 10 -9 15 4 9 24 7 32 -4 15 -8 -12 -10
-9 -10 13 0 16 -4 26 -10 22 -5 -3 -10 3 -10 15 0 12 4 19 9 16 5 -4 8 9 7 29
-2 19 0 35 4 35 12 0 18 36 9 53 -6 9 -5 18 0 21 5 4 8 25 5 48 -3 39 -3 40
12 22 8 -10 13 -13 9 -7 -8 17 35 73 56 73 10 0 19 5 21 11 3 9 9 9 25 1 12
-7 41 -13 66 -15 25 -1 49 -6 53 -10 4 -4 23 -7 41 -7 20 0 32 -4 28 -10 -3
-5 1 -10 9 -10 9 0 16 -4 16 -8 0 -5 11 -15 25 -22 14 -7 25 -20 25 -27 0 -8
4 -11 10 -8 5 3 10 -3 10 -14 0 -12 5 -21 10 -21 6 0 10 -10 9 -22 -4 -49 1
-68 16 -62 10 4 15 0 15 -15 0 -14 -5 -19 -15 -15 -8 4 -15 1 -15 -5 0 -6 7
-11 15 -11 11 0 15 -11 15 -40 0 -29 4 -40 15 -40 11 0 15 -11 15 -40 l0 -40
4965 0 4965 0 0 5400 0 5400 -9600 0 -9600 0 0 -5400z m12835 2230 c3 -5 2
-10 -4 -10 -5 0 -13 5 -16 10 -3 6 -2 10 4 10 5 0 13 -4 16 -10z m-6330 -99
c3 -5 2 -12 -3 -15 -5 -3 -9 1 -9 9 0 17 3 19 12 6z m53 -16 c-3 -3 -9 2 -12
12 -6 14 -5 15 5 6 7 -7 10 -15 7 -18z m6209 -1 c-3 -3 -12 -4 -19 -1 -8 3 -5
6 6 6 11 1 17 -2 13 -5z m134 -3 c-12 -8 -51 -4 -51 5 0 2 15 4 33 4 22 0 28
-3 18 -9z m-127 -26 c3 -10 -1 -15 -12 -15 -10 0 -23 -5 -30 -12 -18 -18 -25
-3 -10 21 15 24 43 28 52 6z m-6135 -113 c22 -38 41 -75 43 -83 2 -8 10 -20
18 -27 12 -10 1 -11 -65 -6 -44 3 -91 5 -105 5 -18 -1 -21 2 -11 8 11 7 10 11
-6 19 -12 7 -25 7 -34 1 -20 -13 -29 -11 -29 6 0 8 8 15 18 15 10 0 26 6 36
13 18 13 18 14 1 21 -17 6 -17 7 0 26 18 19 17 20 -6 21 l-24 0 23 10 c13 5
33 7 45 4 13 -4 31 1 42 10 11 9 14 13 6 9 -9 -5 -12 -3 -7 4 4 7 9 12 11 12
2 0 22 -31 44 -68z m6071 33 c0 -8 5 -15 12 -15 6 0 8 -3 5 -6 -8 -8 -37 14
-37 27 0 5 5 9 10 9 6 0 10 -7 10 -15z m-5970 -67 c0 -10 -4 -18 -10 -18 -5 0
-7 7 -4 15 4 9 0 15 -10 15 -16 0 -22 21 -9 33 8 9 32 -24 33 -45z m-272 21
c-20 -13 -28 -11 -22 5 3 8 12 12 21 9 12 -5 12 -7 1 -14z m302 -55 c0 -8 -4
-12 -10 -9 -5 3 -10 13 -10 21 0 8 5 12 10 9 6 -3 10 -13 10 -21z m6220 10 c0
-27 -63 -134 -83 -140 -10 -3 -16 -8 -13 -11 3 -3 1 -14 -5 -25 -8 -15 -13
-17 -25 -7 -18 15 -18 44 1 63 8 8 15 19 15 25 0 6 5 11 10 11 6 0 10 6 8 13
-3 15 61 87 79 87 7 0 13 -7 13 -16z m-325 -15 c4 -6 -2 -13 -13 -16 -14 -3
-19 -10 -15 -21 4 -10 3 -14 -2 -10 -4 4 -15 3 -22 -4 -10 -8 -9 -1 4 25 18
37 36 46 48 26z m92 -5 c-3 -3 -12 -4 -19 -1 -8 3 -5 6 6 6 11 1 17 -2 13 -5z
m17 -26 c5 -10 7 -10 12 0 9 18 23 15 20 -5 -3 -18 -47 -25 -88 -15 -28 7 -21
20 7 14 15 -2 25 0 25 7 0 15 17 14 24 -1z m-5987 -4 c-3 -3 -12 -4 -19 -1 -8
3 -5 6 6 6 11 1 17 -2 13 -5z m6064 -1 c0 -5 2 -18 5 -30 2 -15 -1 -23 -10
-23 -13 0 -28 45 -18 55 8 8 22 6 23 -2z m301 -47 c-13 -46 -112 -183 -224
-311 -103 -117 -327 -332 -413 -395 -33 -25 -62 -47 -65 -50 -33 -37 -228
-174 -405 -285 -33 -20 -68 -44 -78 -53 -24 -22 -63 -24 -79 -4 -12 15 -11 16
5 3 11 -9 17 -10 17 -2 0 6 -6 12 -12 12 -18 2 -20 1 -43 -6 -18 -6 -18 -5 3
13 22 20 22 21 2 27 -25 8 -50 -10 -47 -33 1 -10 -2 -17 -8 -17 -5 0 -9 11 -7
24 3 20 0 23 -17 18 -12 -3 -24 -1 -27 4 -3 5 3 10 13 10 10 1 23 2 28 4 6 1
21 3 34 3 31 2 18 16 -17 18 -49 3 -53 4 -47 14 3 6 -3 10 -14 10 -23 0 -28
15 -9 26 7 4 8 3 4 -4 -10 -16 5 -15 42 4 18 8 36 13 41 10 5 -4 12 -2 16 4 3
5 1 10 -6 10 -14 0 32 44 56 53 22 9 9 28 -13 20 -9 -3 -14 -3 -11 1 4 4 18 9
33 12 14 2 37 9 52 14 14 6 29 8 34 5 5 -3 12 -1 15 5 4 6 3 10 -2 9 -4 -1
-16 -1 -25 0 -23 1 -12 28 15 37 11 4 28 15 36 24 9 10 65 61 124 114 59 53
127 120 151 148 37 45 48 53 75 51 29 -1 30 0 14 12 -14 10 -15 16 -5 28 16
19 41 16 57 -6 7 -9 18 -17 24 -17 20 0 -22 49 -42 50 -16 0 -15 3 5 31 13 17
33 35 46 40 12 5 22 13 22 19 0 6 -6 8 -12 4 -7 -4 -5 2 5 13 9 11 17 23 17
27 0 4 8 16 18 27 11 10 25 31 33 46 28 53 47 65 100 61 27 -1 49 0 49 3 0 11
-25 17 -63 15 -32 -1 -35 1 -22 13 20 21 105 23 134 4 13 -8 20 -10 17 -4 -8
12 22 15 48 5 14 -5 14 -9 4 -23 -7 -9 -9 -13 -4 -9 4 3 16 -2 27 -13 15 -15
33 -19 97 -19 77 1 104 10 110 40 2 8 17 26 33 41 32 28 39 52 13 42 -28 -10
-11 21 19 35 15 7 27 18 27 24 0 6 3 9 6 6 3 -4 1 -22 -4 -42z m-6422 -2 c0
-8 -9 -14 -21 -14 -11 0 -17 -4 -14 -10 3 -5 19 -10 36 -10 16 0 29 -4 29 -8
0 -5 24 -45 54 -89 30 -45 52 -84 49 -87 -4 -3 -1 -6 5 -6 6 0 29 -24 51 -54
66 -90 230 -266 326 -352 141 -127 305 -238 460 -314 195 -95 346 -143 535
-170 117 -16 117 -16 128 -58 7 -26 10 -30 11 -14 1 13 -4 32 -10 43 -9 17 -7
20 7 17 9 -2 18 4 19 14 3 19 -23 30 -77 32 -21 0 -38 5 -37 10 0 5 -5 13 -13
18 -17 11 91 -1 114 -14 10 -5 24 -21 32 -36 18 -36 39 -128 33 -144 -3 -7 -6
-3 -6 8 -1 12 -8 24 -16 28 -12 4 -14 0 -9 -22 9 -38 13 -42 29 -35 9 3 15 -1
15 -10 0 -8 -6 -17 -14 -20 -8 -3 -13 -13 -12 -21 3 -23 16 -32 16 -12 0 9 5
14 10 11 13 -8 13 -85 -1 -85 -5 0 -7 5 -4 10 3 6 2 10 -4 10 -5 0 -11 6 -14
13 -2 6 -2 3 0 -8 2 -11 5 -29 7 -40 6 -44 18 -66 32 -61 9 4 14 -2 15 -17 1
-25 6 -60 19 -136 12 -68 12 -84 1 -76 -5 3 -12 1 -16 -5 -3 -5 2 -11 12 -11
16 -1 15 -2 -2 -7 l-20 -5 20 -8 c19 -7 19 -8 -2 -8 -28 -1 -20 -38 13 -53 17
-8 24 -22 29 -60 4 -27 4 -52 0 -56 -4 -4 -38 -7 -77 -7 -63 0 -72 3 -92 26
-12 14 -31 32 -42 38 -14 9 -14 11 -2 7 17 -5 78 14 78 25 0 3 -21 9 -47 13
-35 5 -51 3 -58 -7 -14 -20 -76 -20 -68 -1 4 12 -4 14 -45 9 -29 -2 -54 0 -57
5 -3 6 2 10 12 10 15 0 16 2 3 10 -10 6 -20 4 -31 -6 -20 -18 -58 -18 -65 1
-4 8 -11 15 -16 15 -6 0 -5 -6 2 -15 10 -12 9 -15 -7 -15 -16 0 -20 7 -21 40
-1 30 2 40 14 40 8 0 13 4 10 9 -4 5 -27 9 -52 9 -41 0 -44 -1 -27 -14 16 -13
16 -13 1 -8 -12 4 -18 1 -18 -10 0 -9 -6 -16 -12 -16 -9 0 -8 -4 2 -10 13 -9
13 -11 0 -20 -8 -5 -10 -10 -5 -10 6 0 2 -5 -8 -11 -22 -13 -38 -2 -17 11 12
8 9 10 -11 10 -34 0 -41 8 -28 32 14 26 3 35 -21 20 -24 -15 -55 -15 -81 -1
-23 12 -199 28 -234 21 -29 -5 -33 -29 -7 -35 10 -2 0 -7 -23 -12 -57 -11
-145 -45 -177 -67 -16 -11 -32 -17 -37 -14 -5 3 -11 -1 -15 -9 -3 -8 -13 -15
-21 -15 -9 0 -14 4 -11 9 3 4 -2 17 -10 27 -15 18 -15 18 -11 -8 3 -22 0 -27
-26 -32 -37 -8 -85 3 -65 15 10 7 9 12 -6 26 -10 10 -16 13 -12 6 3 -6 2 -14
-4 -18 -6 -4 -8 -11 -5 -16 4 -5 -39 -9 -104 -9 -100 0 -111 2 -111 18 0 10 5
23 12 30 9 9 7 12 -10 12 -15 0 -22 -6 -22 -20 0 -27 -23 -25 -57 6 -19 17
-24 27 -15 31 13 5 17 33 4 33 -12 0 -42 -56 -35 -64 4 -4 1 -11 -7 -16 -22
-14 -30 -12 -23 7 4 11 3 14 -5 9 -9 -5 -9 -1 -3 18 8 18 6 26 -4 30 -8 3 -17
0 -21 -6 -5 -7 -2 -8 7 -4 8 4 6 1 -3 -7 -10 -8 -14 -18 -10 -23 4 -4 -1 -2
-10 5 -10 7 -16 17 -15 22 1 5 -9 15 -23 22 -14 8 -24 19 -22 25 1 7 -1 11 -5
10 -5 -1 -18 3 -31 10 -16 10 -21 19 -17 33 5 13 2 17 -7 14 -8 -3 -24 6 -36
20 -25 29 -28 39 -9 32 7 -3 19 4 25 14 7 10 18 19 25 19 22 0 38 16 31 33 -3
9 -15 17 -25 17 -17 0 -18 3 -9 20 9 16 8 20 -5 20 -8 0 -15 -7 -15 -15 0 -8
-9 -15 -19 -15 -28 0 -37 -20 -9 -21 17 -1 18 -3 5 -6 -10 -3 -14 -9 -10 -16
4 -7 -1 -5 -11 3 -10 8 -25 15 -33 16 -8 2 -18 6 -21 9 -4 4 2 5 12 3 10 -1
21 3 24 11 3 10 -3 13 -27 9 -27 -4 -35 1 -72 48 -23 28 -55 76 -72 105 -101
180 -108 194 -102 216 3 13 2 23 -2 22 -24 -4 -33 5 -42 38 -6 20 -9 39 -6 41
2 2 33 -14 69 -37 71 -45 78 -47 71 -28 -3 6 -2 24 3 39 5 21 10 25 22 18 13
-8 12 -12 -5 -25 -17 -14 -17 -16 -2 -11 11 4 17 0 17 -11 0 -14 2 -14 19 1
18 16 21 16 60 -4 23 -11 41 -24 41 -29 0 -4 15 -8 33 -9 l32 -1 -40 32 c-68
53 -225 210 -219 219 3 4 0 8 -6 8 -7 0 -10 6 -7 13 2 6 10 11 17 9 7 -2 10 3
7 12 -3 8 -1 17 6 20 7 2 3 5 -8 5 -15 1 -17 3 -6 10 16 10 6 31 -15 31 -8 0
-12 -4 -9 -10 10 -16 -1 -12 -16 7 -13 15 -10 16 29 10 29 -3 42 -2 39 6 -2 6
-19 12 -38 13 -64 3 -66 3 -49 13 8 6 18 7 24 4 5 -3 6 -1 2 5 -4 7 -19 12
-34 12 -24 1 -25 2 -8 12 10 6 35 13 55 15 48 7 53 13 10 13 -19 0 -41 5 -49
10 -12 8 -10 10 9 10 13 0 30 8 37 18 12 15 15 15 23 2 12 -18 89 -21 95 -3 3
7 14 13 24 13 10 0 19 6 19 14 0 9 -8 13 -23 10 -13 -2 -25 0 -28 5 -4 5 -19
3 -36 -6 -33 -16 -40 -28 -12 -19 9 3 24 1 32 -4 11 -7 5 -10 -23 -10 -33 0
-38 3 -32 19 4 15 -1 21 -25 30 -18 6 -29 15 -26 20 4 5 0 12 -6 14 -7 3 -3 6
9 6 12 1 24 -5 26 -11 3 -8 6 -6 6 5 1 9 -7 18 -16 18 -16 1 -16 2 -2 6 11 3
15 11 12 26 -3 13 -1 18 4 11 4 -6 24 -11 43 -11 57 -1 141 -10 147 -17 4 -3
1 -6 -6 -6 -6 0 -11 -8 -9 -17 2 -13 -5 -19 -22 -22 -24 -3 -25 -3 -7 17 18
20 18 20 -50 24 -37 2 -72 0 -77 -4 -6 -4 10 -9 35 -9 l44 -2 -40 -6 c-30 -4
-36 -8 -25 -15 19 -13 169 -24 173 -13 1 4 10 9 19 11 31 4 34 18 3 15 -16 -2
-29 1 -28 6 0 6 3 19 5 30 3 16 -3 19 -42 21 -25 1 -63 6 -85 12 -22 6 -73 13
-112 17 -40 4 -73 11 -73 17 0 5 5 8 11 6 7 -2 37 1 67 7 38 8 60 18 70 33 13
20 13 22 0 17 -15 -6 -34 22 -23 33 3 3 5 0 5 -6 0 -21 37 -13 48 11 6 12 11
16 11 10 1 -7 6 -13 12 -13 5 0 8 4 5 9 -3 4 12 7 34 6 22 -1 40 2 40 6 0 5
-9 9 -19 9 -16 0 -18 3 -8 23 8 17 18 22 51 22 23 0 44 -4 48 -10 5 -6 8 -5 8
3 0 6 10 12 23 12 17 0 19 -2 8 -9 -12 -8 -10 -11 10 -15 39 -9 179 -12 179
-3 0 4 -30 8 -67 9 -64 2 -65 2 -15 5 30 2 50 8 47 14 -4 5 5 9 19 9 16 0 26
6 26 14 0 11 15 16 53 18 28 2 1 5 -60 5 -62 1 -113 -2 -113 -6 0 -4 16 -5 36
-3 26 3 35 1 30 -7 -4 -6 -24 -11 -44 -12 -31 0 -34 -2 -17 -10 13 -5 -13 -6
-70 -3 -94 7 -109 10 -100 24 5 8 -51 26 -70 22 -5 -1 -1 5 9 13 19 15 19 15
-2 15 -12 0 -22 -3 -22 -7 0 -7 -23 -8 -110 -3 l-25 1 25 12 c14 6 28 16 32
22 5 6 8 5 8 -2 0 -16 46 -17 55 -3 4 6 20 9 36 6 16 -2 29 -1 29 3 0 12 -83
12 -90 1 -4 -6 -21 -3 -46 10 l-39 19 30 2 c86 6 143 5 168 -4 20 -6 32 -6 40
2 6 6 20 11 32 11 16 0 17 2 5 10 -11 7 -11 10 -2 10 10 0 10 5 2 20 -6 11
-19 20 -29 20 -22 0 -55 46 -45 62 4 7 3 8 -4 4 -7 -4 -12 -1 -12 8 0 17 23
20 55 6 19 -8 19 -9 -2 -9 -24 -1 -31 -25 -11 -37 8 -5 9 -1 4 12 -4 12 3 7
18 -11 14 -16 25 -24 26 -17 0 6 -4 12 -8 12 -5 0 -7 12 -4 28 4 27 4 27 95
30 50 1 93 4 95 7 8 8 22 -6 22 -21z m5906 -2 c-13 -13 -17 -13 -32 -1 -15 13
-15 14 7 20 33 8 44 0 25 -19z m80 5 c-3 -7 -9 -20 -12 -30 -6 -17 -50 -35
-61 -24 -10 11 35 63 57 64 13 1 19 -3 16 -10z m350 -34 c-11 -11 -19 6 -11
24 8 17 8 17 12 0 3 -10 2 -21 -1 -24z m374 23 c0 -3 -4 -8 -10 -11 -5 -3 -10
-1 -10 4 0 6 5 11 10 11 6 0 10 -2 10 -4z m-7220 -46 c0 -5 -5 -10 -11 -10 -5
0 -7 5 -4 10 3 6 8 10 11 10 2 0 4 -4 4 -10z m660 -35 c17 -25 28 -50 25 -55
-3 -6 0 -10 7 -10 16 0 113 -128 105 -137 -9 -8 -28 7 -22 18 4 5 -1 9 -10 9
-9 0 -14 4 -10 9 3 5 -1 15 -8 23 -7 7 -16 21 -19 30 -4 9 -17 18 -30 20 -13
2 -24 11 -26 21 -2 11 -12 27 -23 38 -10 10 -19 26 -19 34 0 8 -4 15 -10 15
-5 0 -7 7 -4 15 8 21 9 20 44 -30z m-616 20 c-7 -17 -3 -18 20 -9 9 3 14 9 12
13 -3 4 6 8 20 9 15 1 24 -3 24 -13 0 -7 5 -17 12 -21 7 -5 8 -3 3 5 -5 10 -2
9 13 0 12 -7 19 -16 16 -20 -2 -4 4 -10 13 -12 10 -3 -15 -5 -54 -4 -69 2 -89
9 -60 20 6 3 -4 6 -23 6 -27 1 -31 4 -20 11 13 9 13 11 0 20 -12 8 -11 10 7
10 16 0 21 -4 17 -15z m6287 -18 c-16 -16 -26 0 -10 19 9 11 15 12 17 4 2 -6
-1 -17 -7 -23z m845 17 c-3 -9 -6 -20 -6 -25 0 -5 -9 -9 -20 -9 -20 0 -20 1
-4 25 18 28 40 34 30 9z m-799 0 c-3 -3 -12 -4 -19 -1 -8 3 -5 6 6 6 11 1 17
-2 13 -5z m446 -14 c-3 -11 -12 -20 -20 -20 -8 0 -11 -4 -8 -10 3 -6 -4 -10
-17 -10 -22 1 -21 2 10 30 38 35 42 36 35 10z m-483 -29 c0 -10 -24 -21 -47
-21 -13 0 -13 3 -3 15 13 16 50 21 50 6z m786 -26 c-6 -23 -3 -25 34 -31 40
-7 40 -7 40 -51 l0 -45 -37 2 c-58 3 -62 2 -56 -20 3 -11 0 -20 -6 -20 -6 0
-11 -5 -11 -10 0 -6 16 -10 35 -8 40 2 45 14 13 28 -19 7 -16 9 19 9 l41 1 1
-62 c0 -34 -5 -68 -11 -75 -6 -8 -8 -16 -6 -19 3 -3 -7 -19 -23 -36 -15 -17
-26 -35 -24 -39 3 -4 -2 -12 -10 -19 -8 -7 -15 -17 -15 -23 0 -5 -16 -32 -36
-60 -20 -28 -37 -55 -38 -61 -1 -6 -5 -17 -10 -24 -7 -11 -4 -12 13 -3 30 16
27 8 -25 -67 -72 -103 -118 -158 -233 -274 -93 -95 -103 -108 -81 -109 14 0
34 -2 45 -4 11 -2 38 -6 60 -9 l40 -6 -35 11 c-19 6 -39 15 -45 21 -7 7 -6 9
1 5 6 -4 19 0 29 7 17 12 17 13 1 19 -10 4 -15 3 -11 -3 3 -6 -3 -10 -14 -10
-10 0 -21 -5 -23 -11 -2 -6 -12 -10 -22 -8 -13 3 -2 12 35 33 30 16 56 32 59
35 3 4 37 26 75 50 39 24 67 40 63 36 -4 -4 0 -14 8 -23 13 -13 17 -13 24 -2
6 9 3 18 -8 26 -16 12 -15 13 3 20 11 4 43 23 72 41 56 36 63 38 63 23 0 -5
-7 -10 -16 -10 -8 0 -13 -4 -10 -9 8 -12 -20 -34 -33 -27 -5 4 -12 2 -15 -3
-8 -13 21 -34 39 -28 8 4 17 2 20 -3 4 -6 -1 -10 -9 -10 -17 0 -34 -27 -39
-60 -2 -12 -8 -25 -13 -28 -5 -4 -17 -24 -26 -44 -17 -38 -18 -38 -80 -40
l-63 -2 58 -3 c66 -5 68 -9 32 -79 -30 -59 -30 -58 -6 -51 18 4 18 3 2 -24 -9
-16 -25 -29 -35 -29 -15 0 -17 -3 -9 -11 15 -15 -9 -41 -30 -33 -17 6 -62 -60
-52 -76 3 -5 0 -10 -7 -10 -16 0 -71 -77 -73 -101 -1 -10 3 -15 9 -12 6 4 1
-9 -11 -28 -15 -23 -32 -36 -52 -39 -19 -3 -43 -20 -66 -47 -39 -46 -42 -53
-20 -53 8 0 15 5 15 11 0 7 8 18 18 25 9 7 17 18 17 26 0 7 11 14 23 16 21 3
17 -3 -24 -47 -33 -35 -56 -51 -74 -51 -29 -1 -114 -75 -104 -92 4 -7 2 -8 -5
-4 -6 4 -33 -12 -63 -38 -29 -25 -56 -46 -61 -46 -4 0 -5 -6 -1 -12 4 -7 4
-10 -1 -6 -4 4 -22 -3 -39 -15 -49 -35 -68 -46 -114 -68 -53 -25 -112 -83
-112 -109 0 -42 -17 -17 -35 52 -22 81 -76 168 -140 227 -38 35 -55 71 -33 71
22 0 3 20 -37 39 -26 12 -43 26 -39 32 3 6 -3 5 -15 -2 -18 -12 -23 -11 -41 9
-11 12 -17 22 -12 22 4 0 17 7 28 16 19 15 19 15 -2 11 -12 -3 -28 -1 -35 4
-14 9 19 13 68 9 18 -1 22 2 16 17 -6 17 -5 17 14 1 16 -15 37 -18 109 -17
141 2 166 14 47 22 -56 4 -108 4 -117 1 -9 -3 -16 -1 -16 5 0 6 -13 11 -30 11
-21 0 -30 5 -30 16 0 11 -6 14 -20 9 -11 -4 -20 -2 -20 4 0 6 -11 11 -25 11
-15 0 -25 6 -25 14 0 7 -9 16 -21 19 -12 3 -18 10 -14 16 4 7 -8 11 -32 12
-29 0 -33 2 -18 8 11 5 28 7 38 5 10 -2 15 1 13 5 -3 4 -31 13 -62 20 -36 8
-53 16 -46 23 6 6 30 4 66 -6 49 -12 57 -12 52 0 -5 14 27 38 37 27 3 -3 13 2
21 10 12 12 13 17 3 20 -9 4 -8 8 3 16 12 8 8 11 -17 11 -37 0 -43 14 -13 32
11 7 20 18 20 25 0 7 7 13 16 13 9 0 12 -5 8 -12 -4 -7 -3 -8 4 -4 19 12 14
25 -14 32 l-25 6 21 23 c18 20 19 23 5 35 -12 10 -18 10 -30 0 -8 -7 -12 -17
-9 -22 4 -6 -2 -7 -17 -3 -30 9 -26 5 -34 37 -6 25 -5 27 17 23 l23 -4 -22 18
c-12 10 -19 21 -16 25 11 10 43 7 43 -5 0 -8 5 -8 15 1 9 7 15 8 15 2 0 -5 6
-12 14 -15 9 -4 14 2 14 19 0 17 -5 23 -14 20 -7 -3 -16 -1 -19 3 -2 5 7 11
20 14 14 2 28 1 31 -4 6 -10 64 0 81 13 6 5 26 11 44 13 40 5 44 9 24 28 -8 9
-11 18 -6 22 5 3 12 1 16 -5 10 -16 51 -11 68 8 10 10 14 22 10 27 -5 4 -3 5
4 2 15 -9 45 2 37 14 -3 5 3 9 12 9 16 0 16 -1 -1 -20 -16 -18 -16 -20 -2 -20
10 0 17 5 17 10 0 6 7 10 15 10 8 0 15 5 15 10 0 6 -4 10 -8 10 -5 0 -9 7 -9
15 0 9 6 14 14 11 7 -3 13 -2 13 2 0 4 9 8 20 9 11 1 20 -4 20 -10 0 -8 3 -8
8 -2 4 6 16 10 27 10 13 0 21 8 23 23 2 12 8 20 13 17 5 -4 9 1 9 9 0 9 5 16
11 16 6 0 17 7 25 15 17 17 59 21 49 5 -3 -5 1 -10 9 -10 8 0 18 5 21 10 3 6
1 10 -5 10 -7 0 -8 5 -3 13 12 19 10 31 -6 38 -19 7 99 89 137 95 25 3 24 2
-10 -19 -36 -21 -54 -52 -38 -62 5 -3 15 3 22 13 21 30 90 60 72 31 -4 -7 2
-6 17 2 23 12 23 12 4 20 -11 4 -14 8 -7 8 7 1 20 8 28 16 9 8 26 15 40 15 15
0 24 6 24 16 0 9 -5 13 -12 9 -7 -4 -5 0 5 8 26 21 21 26 -20 20 -26 -4 -34
-3 -29 5 4 7 16 12 27 12 10 0 19 6 19 14 0 7 12 21 26 31 14 9 44 33 66 53
32 29 41 33 49 21 5 -8 7 -19 4 -26 -2 -7 2 -10 10 -7 12 5 12 10 -1 30 -16
23 -14 25 86 124 91 89 104 99 115 84 6 -9 17 -14 23 -10 18 11 14 24 -9 31
-16 5 -18 9 -9 15 7 5 19 6 26 3 7 -2 21 0 31 6 17 10 17 10 -2 12 -11 1 -23
1 -27 0 -15 -2 -8 10 29 55 21 24 46 44 56 44 11 0 18 6 16 18 -2 26 0 32 12
32 7 0 9 -10 5 -25z m54 13 c0 -4 -9 -8 -21 -8 -11 0 -18 4 -15 8 3 5 12 9 21
9 8 0 15 -4 15 -9z m-860 -33 c-7 -8 -19 -15 -28 -15 -25 0 -53 -40 -42 -61 8
-14 6 -19 -9 -24 -10 -3 -23 -15 -29 -28 -10 -21 -11 -21 -12 -2 -1 17 -3 16
-16 -8 -8 -15 -12 -31 -10 -36 3 -5 -1 -14 -9 -21 -8 -7 -15 -9 -15 -5 0 5 -8
1 -18 -8 -10 -10 -22 -14 -27 -10 -4 5 -5 0 -2 -10 4 -11 3 -16 -3 -12 -14 8
-13 21 3 37 7 7 46 56 86 108 53 70 78 94 92 92 10 -2 19 2 19 7 0 6 7 11 16
11 14 0 14 -3 4 -15z m-6253 -21 c-3 -3 -12 -4 -19 -1 -8 3 -5 6 6 6 11 1 17
-2 13 -5z m68 -54 c4 -6 -5 -10 -20 -10 -15 0 -24 4 -20 10 3 6 12 10 20 10 8
0 17 -4 20 -10z m102 -37 c3 -7 -3 -9 -17 -6 -29 8 -37 25 -9 21 12 -1 24 -8
26 -15z m2430 -473 c1 0 58 -46 126 -102 68 -57 184 -143 259 -193 75 -49 137
-94 137 -98 1 -5 -11 0 -26 11 -28 20 -33 22 -54 22 -5 0 -7 5 -4 10 3 6 1 10
-5 10 -6 0 -20 9 -32 20 -12 11 -28 20 -35 20 -7 0 -13 4 -13 10 0 5 -15 16
-34 25 -19 9 -42 25 -52 36 -9 10 -21 19 -26 19 -5 0 -15 6 -23 13 -7 6 -27
23 -45 37 -18 14 -47 39 -65 55 -17 17 -44 39 -60 50 -28 20 -129 116 -374
352 -69 67 -127 120 -129 119 -9 -10 27 -69 76 -125 244 -284 617 -599 884
-748 73 -41 75 -46 58 -118 -12 -47 -61 -281 -65 -310 -2 -11 -13 -85 -25
-165 -41 -285 -22 -664 40 -780 6 -12 9 -24 6 -27 -9 -9 -33 54 -47 124 -7 34
-15 60 -19 58 -3 -2 -4 11 -2 29 2 19 -2 37 -10 43 -10 9 -13 6 -15 -14 -1
-20 1 -23 9 -12 8 12 9 12 6 0 -7 -25 -24 -22 -36 6 l-12 28 5 -27 c5 -27 -15
-53 -23 -30 -5 17 -22 15 -22 -2 0 -17 27 -29 43 -19 21 13 36 11 30 -4 -5
-12 -7 -12 -14 -1 -9 14 -13 5 -10 -24 3 -20 -19 -24 -37 -6 -17 17 -28 2 -12
-17 17 -20 3 -19 -18 2 -12 12 -13 18 -4 21 16 5 15 27 -2 42 -13 10 -14 7
-10 -14 3 -19 0 -26 -11 -26 -8 0 -24 -14 -34 -31 -16 -26 -19 -28 -25 -12 -6
15 -8 15 -16 3 -6 -8 -10 -27 -10 -42 0 -28 -14 -45 -24 -29 -4 5 -2 12 2 15
10 6 9 36 -2 54 -4 7 -12 10 -17 6 -5 -3 -7 -9 -4 -14 3 -4 -2 -13 -10 -20 -8
-7 -15 -9 -15 -4 -1 5 -10 -10 -21 -33 -18 -40 -38 -61 -25 -27 3 8 2 13 -3 9
-5 -3 -15 1 -23 8 -16 16 -33 16 -49 0 -11 -11 -9 -13 5 -13 9 0 14 -4 11 -10
-10 -17 -48 -12 -41 5 6 16 -59 94 -69 83 -3 -3 1 -13 10 -22 15 -15 15 -17 1
-32 -9 -8 -16 -19 -16 -24 0 -5 -7 -7 -16 -3 -13 5 -13 7 -2 14 10 7 11 11 0
17 -7 5 -10 16 -6 26 6 16 5 17 -17 4 -13 -7 -27 -17 -31 -23 -5 -6 -8 -6 -8
1 0 6 -7 11 -15 11 -17 0 -20 -32 -4 -43 8 -4 8 -9 -1 -18 -19 -19 -30 14 -25
74 2 30 2 44 -1 31 -3 -13 -12 -30 -19 -38 -11 -11 -14 -9 -17 9 -3 17 -9 8
-21 -33 -10 -31 -15 -63 -11 -72 4 -12 1 -17 -11 -17 -11 0 -15 5 -11 16 16
43 46 221 53 319 12 161 7 383 -8 420 -4 11 -8 16 -8 10 -1 -5 -3 -91 -6 -190
-2 -99 -6 -193 -9 -210 -2 -16 -10 -70 -16 -120 -7 -49 -17 -97 -22 -105 -6
-10 -7 -6 -3 13 18 86 33 360 28 523 -7 260 -64 756 -144 1247 -38 236 -69
432 -69 436 0 5 109 -99 243 -230 133 -131 243 -239 244 -239z m-1797 375 c10
-12 9 -15 -8 -15 -11 0 -22 7 -26 15 -3 9 0 15 8 15 7 0 19 -7 26 -15z m-820
-35 c0 -5 -8 -10 -17 -10 -15 0 -16 2 -3 10 19 12 20 12 20 0z m890 -40 c39
-46 40 -50 16 -40 -37 14 -85 61 -68 67 6 3 10 9 6 14 -15 25 9 4 46 -41z
m5130 15 c-7 -9 -15 -13 -18 -10 -3 2 1 11 8 20 7 9 15 13 18 10 3 -2 -1 -11
-8 -20z m0 -41 c-15 -17 -17 -17 -23 -1 -3 8 3 14 15 14 16 2 17 -1 8 -13z
m-37 -11 c-7 -3 -9 -11 -7 -18 4 -10 0 -13 -15 -10 -14 2 -18 -1 -15 -10 4 -9
-3 -16 -20 -21 -14 -3 -31 -13 -38 -22 -11 -13 -10 -15 5 -9 11 4 16 3 12 -3
-3 -6 -12 -10 -20 -10 -8 0 -29 -13 -47 -30 -18 -16 -37 -30 -42 -30 -5 0 31
40 80 89 56 55 94 86 103 83 10 -4 11 -7 4 -9z m-6008 -43 c-3 -5 -10 -10 -16
-10 -5 0 -9 5 -9 10 0 6 7 10 16 10 8 0 12 -4 9 -10z m1007 -7 c10 -9 18 -23
18 -31 0 -13 -3 -13 -18 1 -10 10 -27 17 -37 17 -14 0 -15 3 -5 15 16 19 19
19 42 -2z m3598 13 c0 -2 -8 -10 -17 -17 -16 -13 -17 -12 -4 4 13 16 21 21 21
13z m-3485 -119 c26 -23 173 -129 226 -163 129 -81 360 -177 517 -214 28 -6
52 -16 52 -22 0 -5 -8 -7 -17 -4 -26 7 -92 17 -142 21 -24 1 -46 7 -50 12 -3
5 -22 15 -41 23 -19 8 -38 18 -41 22 -3 5 -19 10 -35 12 -16 3 -54 16 -85 30
-31 13 -60 22 -65 18 -4 -4 -5 0 -1 10 4 12 -2 18 -28 22 -26 5 -33 11 -28 23
4 11 3 14 -5 9 -7 -4 -12 -2 -12 4 0 6 -4 8 -10 5 -13 -8 -71 26 -64 37 5 7
-10 12 -29 9 -5 -1 -6 3 -2 9 3 5 -3 10 -13 10 -11 0 -23 7 -26 16 -3 8 -10
13 -15 10 -11 -7 -53 29 -44 37 3 4 -8 10 -26 13 -25 5 -32 11 -28 25 5 17 -4
24 -26 20 -5 -1 -7 4 -4 11 2 7 -7 27 -22 43 l-26 30 35 -30 c19 -16 44 -38
55 -48z m-978 57 c-3 -3 -12 -4 -19 -1 -8 3 -5 6 6 6 11 1 17 -2 13 -5z m-197
-24 c0 -5 -5 -10 -11 -10 -5 0 -7 5 -4 10 3 6 8 10 11 10 2 0 4 -4 4 -10z m10
-36 c0 -9 5 -12 12 -8 7 4 8 3 4 -4 -4 -7 -13 -12 -21 -12 -14 0 -27 24 -18
34 11 11 23 6 23 -10z m7109 -21 c-7 -10 -14 -20 -16 -22 -1 -2 -1 6 0 18 1
11 8 21 15 21 12 0 12 -3 1 -17z m-1292 -39 c-3 -3 -12 -4 -19 -1 -8 3 -5 6 6
6 11 1 17 -2 13 -5z m753 -28 c0 -2 -9 -6 -20 -9 -11 -3 -20 -1 -20 4 0 5 9 9
20 9 11 0 20 -2 20 -4z m-240 -126 c0 -5 -3 -9 -7 -9 -20 3 -34 -2 -28 -11 3
-5 1 -10 -4 -10 -17 0 -13 18 7 29 22 13 32 14 32 1z m-686 -65 c-10 -7 -22
-11 -27 -8 -4 2 -6 -1 -5 -8 2 -6 -9 -12 -24 -13 -16 -1 -28 2 -28 6 0 4 4 8
10 8 5 0 26 12 47 26 38 26 63 16 27 -11z m560 0 c-4 -8 -12 -15 -19 -15 -7 0
-22 -3 -32 -6 -10 -3 -4 3 12 15 36 25 46 26 39 6z m-93 -54 c-12 -12 -34 -21
-51 -21 -16 0 -30 -4 -30 -10 0 -5 -7 -10 -16 -10 -13 0 -13 2 -2 13 14 13
111 56 116 51 2 -1 -6 -12 -17 -23z m-6114 -27 c-3 -3 -12 -4 -19 -1 -8 3 -5
6 6 6 11 1 17 -2 13 -5z m4007 -16 c-16 -12 -32 -27 -36 -33 -4 -5 -12 -10
-17 -10 -5 0 -24 -11 -43 -25 -18 -13 -40 -23 -48 -21 -8 1 -12 0 -8 -4 9 -10
-8 -25 -62 -54 -60 -33 -72 -45 -57 -60 13 -13 54 -15 59 -3 2 4 22 18 46 30
24 12 40 17 35 10 -9 -15 -11 -81 -2 -88 3 -3 9 -18 13 -34 6 -23 4 -27 -8
-23 -22 9 -27 -3 -12 -32 37 -72 40 -81 27 -94 -10 -9 -11 -8 -6 6 4 9 3 17
-3 17 -19 0 -23 -18 -7 -33 17 -18 20 -37 5 -37 -5 0 -10 -7 -10 -15 0 -8 5
-14 11 -12 6 1 14 -4 17 -12 3 -10 0 -12 -12 -8 -10 4 -16 1 -16 -9 0 -9 -9
-18 -20 -21 -22 -6 -23 -18 -10 -78 l9 -40 -3 46 c-2 34 0 46 11 46 10 0 12
-8 9 -26 -13 -70 -18 -133 -9 -128 6 4 8 -14 6 -46 -3 -29 -1 -47 4 -41 22 31
21 -496 -1 -614 -41 -216 -128 -349 -247 -380 l-34 -8 -5 -445 -5 -444 -5 458
c-4 383 -7 459 -19 467 -21 12 2 37 31 35 13 -1 39 10 57 24 19 14 31 19 26
11 -5 -9 0 -8 13 4 12 11 22 25 22 33 0 7 5 13 10 13 6 0 10 7 10 15 0 8 5 15
11 15 5 0 8 4 4 9 -3 5 -1 12 4 16 17 10 40 65 47 113 3 26 9 52 13 57 11 19
14 79 14 300 1 254 -14 375 -87 729 -26 121 -46 225 -46 232 0 7 30 29 68 49
37 19 112 64 167 99 101 64 142 85 89 44z m-3977 -3 c0 -8 -4 -12 -9 -9 -4 3
-8 9 -8 15 0 5 4 9 8 9 5 0 9 -7 9 -15z m7093 -5 c0 -5 -2 -10 -4 -10 -3 0 -8
5 -11 10 -3 6 -1 10 4 10 6 0 11 -4 11 -10z m-7087 -32 c9 -5 17 -13 17 -18 0
-6 8 -10 17 -10 14 0 15 -2 4 -12 -11 -10 -14 -10 -18 0 -3 6 -9 12 -14 12 -6
0 -27 11 -47 26 -37 25 -37 25 -7 18 17 -4 38 -11 48 -16z m7072 -8 c3 -5 1
-10 -4 -10 -6 0 -11 5 -11 10 0 6 2 10 4 10 3 0 8 -4 11 -10z m-2315 -74 c0
-8 -7 -16 -15 -20 -15 -5 -21 14 -8 27 11 12 23 8 23 -7z m743 7 c-18 -2 -48
-2 -65 0 -18 2 -4 4 32 4 36 0 50 -2 33 -4z m114 1 c-3 -3 -12 -4 -19 -1 -8 3
-5 6 6 6 11 1 17 -2 13 -5z m-2327 -66 c0 -5 -4 -8 -10 -8 -5 0 -10 4 -10 8 0
5 -18 16 -40 26 -22 10 -40 21 -40 26 0 4 22 -4 50 -19 27 -14 50 -29 50 -33z
m2344 17 c-6 -16 -24 -21 -24 -7 0 11 11 22 21 22 5 0 6 -7 3 -15z m-865 -4
c10 -7 12 -20 7 -52 -4 -24 -10 -63 -13 -86 -4 -33 -10 -43 -24 -43 -10 0 -21
-4 -24 -10 -4 -6 5 -10 19 -10 14 0 26 -5 26 -11 0 -6 -9 -8 -20 -4 -11 4 -20
2 -20 -4 0 -6 7 -11 15 -11 13 0 15 -8 10 -42 -4 -24 -7 -51 -6 -60 0 -10 -5
-21 -11 -24 -7 -5 -9 2 -6 20 4 18 1 26 -9 26 -11 0 -14 -7 -10 -22 3 -13 1
-32 -3 -43 -7 -16 -9 -11 -9 19 -1 49 18 313 25 344 5 23 28 29 53 13z m777
-16 c-14 -14 -16 -14 -16 -2 0 9 6 17 13 20 19 7 21 -1 3 -18z m-1689 -52 c-3
-10 -5 -2 -5 17 0 19 2 27 5 18 2 -10 2 -26 0 -35z m-570 5 c-3 -8 -6 -5 -6 6
-1 11 2 17 5 13 3 -3 4 -12 1 -19z m2258 12 c-3 -5 -10 -10 -16 -10 -5 0 -9 5
-9 10 0 6 7 10 16 10 8 0 12 -4 9 -10z m41 -25 c-3 -8 0 -15 6 -17 6 -2 5 -8
-3 -15 -11 -9 -14 -5 -17 23 -1 23 2 33 9 29 6 -4 8 -13 5 -20z m-2309 -27
c-3 -8 -6 -5 -6 6 -1 11 2 17 5 13 3 -3 4 -12 1 -19z m2233 -2 c0 -3 -4 -8
-10 -11 -5 -3 -10 -1 -10 4 0 6 5 11 10 11 6 0 10 -2 10 -4z m-1625 -16 c-3
-5 -11 -10 -16 -10 -6 0 -7 5 -4 10 3 6 11 10 16 10 6 0 7 -4 4 -10z m-618
-32 c-3 -7 -5 -2 -5 12 0 14 2 19 5 13 2 -7 2 -19 0 -25z m2392 8 c8 -10 9
-16 1 -21 -5 -3 -10 2 -10 12 -1 14 -6 12 -25 -12 -14 -17 -25 -24 -25 -16 0
15 28 51 40 51 4 0 13 -6 19 -14z m-2402 -58 c-3 -7 -5 -2 -5 12 0 14 2 19 5
13 2 -7 2 -19 0 -25z m633 2 c0 -14 -28 -1 -34 16 -4 12 -2 12 14 4 11 -6 20
-15 20 -20z m1770 1 c0 -14 -19 -18 -54 -12 l-31 5 35 7 c19 3 38 7 43 8 4 0
7 -3 7 -8z m-2415 -71 c-4 -23 -9 -39 -11 -37 -3 2 -2 23 2 46 4 23 9 40 11
37 3 -3 2 -23 -2 -46z m-995 25 c0 -9 -6 -12 -16 -8 -13 5 -13 7 -2 14 17 11
18 11 18 -6z m1637 -7 c-3 -8 -6 -5 -6 6 -1 11 2 17 5 13 3 -3 4 -12 1 -19z
m20 -10 c-3 -8 -6 -5 -6 6 -1 11 2 17 5 13 3 -3 4 -12 1 -19z m1723 -4 c0 -8
-5 -12 -10 -9 -6 4 -8 11 -5 16 9 14 15 11 15 -7z m1230 -19 c-11 -13 -15 -13
-21 -3 -5 8 -2 15 9 19 23 9 27 3 12 -16z m-2961 -27 c1 -5 -3 -8 -8 -8 -11 0
-21 37 -13 45 6 5 20 -19 21 -37z m2941 -8 c0 -5 -8 -10 -17 -10 -15 0 -16 2
-3 10 19 12 20 12 20 0z m-3613 -32 c-3 -8 -6 -5 -6 6 -1 11 2 17 5 13 3 -3 4
-12 1 -19z m3583 2 c0 -5 -8 -10 -17 -10 -15 0 -16 2 -3 10 19 12 20 12 20 0z
m-3593 -52 c-3 -8 -6 -5 -6 6 -1 11 2 17 5 13 3 -3 4 -12 1 -19z m643 -35
c-11 -17 -11 -17 -6 0 3 10 6 24 7 30 0 9 2 9 5 0 3 -7 0 -20 -6 -30z m-653
-5 c-3 -8 -6 -5 -6 6 -1 11 2 17 5 13 3 -3 4 -12 1 -19z m2546 -15 c-7 -2 -19
-2 -25 0 -7 3 -2 5 12 5 14 0 19 -2 13 -5z m-1893 -17 c0 -3 -4 -8 -10 -11 -5
-3 -10 -1 -10 4 0 6 5 11 10 11 6 0 10 -2 10 -4z m-663 -28 c-3 -8 -6 -5 -6 6
-1 11 2 17 5 13 3 -3 4 -12 1 -19z m-10 -90 c-3 -7 -5 -2 -5 12 0 14 2 19 5
13 2 -7 2 -19 0 -25z m1490 -25 c-3 -10 -5 -2 -5 17 0 19 2 27 5 18 2 -10 2
-26 0 -35z m-2927 13 c0 -3 -4 -8 -10 -11 -5 -3 -10 -1 -10 4 0 6 5 11 10 11
6 0 10 -2 10 -4z m4077 -22 c-3 -3 -12 -4 -19 -1 -8 3 -5 6 6 6 11 1 17 -2 13
-5z m-2650 -36 c-3 -7 -5 -2 -5 12 0 14 2 19 5 13 2 -7 2 -19 0 -25z m-1287
12 c0 -4 23 -4 50 0 28 4 50 3 50 -2 0 -4 -10 -9 -22 -9 -15 -1 -17 -3 -7 -6
9 -2 17 -14 17 -28 0 -20 -7 -24 -48 -30 -27 -4 -75 -3 -107 1 l-58 9 50 6 50
6 -42 1 c-36 2 -40 5 -36 22 3 11 8 18 12 16 3 -2 16 1 29 8 23 12 62 16 62 6z
m2787 -22 c-3 -7 -5 -2 -5 12 0 14 2 19 5 13 2 -7 2 -19 0 -25z m1170 26 c-3
-3 -12 -4 -19 -1 -8 3 -5 6 6 6 11 1 17 -2 13 -5z m-4110 -10 c-3 -3 -12 -4
-19 -1 -8 3 -5 6 6 6 11 1 17 -2 13 -5z m-1142 -34 c-16 -3 -46 -3 -65 -1
l-35 5 35 6 c19 3 49 3 65 1 l30 -5 -30 -6z m395 -17 c0 -4 -10 -21 -22 -39
-18 -26 -29 -32 -51 -30 -15 2 -30 0 -33 -5 -3 -5 0 -9 6 -9 6 0 8 -5 4 -11
-14 -22 -25 8 -13 35 7 15 15 22 19 16 4 -6 14 -8 23 -4 18 7 23 24 7 24 -5 0
-10 -5 -10 -11 0 -6 -7 -4 -15 5 -22 22 -19 24 28 29 23 2 45 4 50 5 4 1 7 -1
7 -5z m-390 -13 c-8 -5 -22 -9 -30 -9 -10 0 -8 3 5 9 27 12 43 12 25 0z m95 0
c3 -5 -1 -10 -9 -10 -9 0 -16 5 -16 10 0 6 4 10 9 10 6 0 13 -4 16 -10z m100
-11 c5 -5 -6 -4 -25 2 -45 15 -54 24 -15 15 17 -4 34 -12 40 -17z m54 -5 c-6
-8 -8 -14 -3 -14 4 0 3 -5 -4 -12 -9 -9 -15 -9 -24 0 -9 9 -9 12 2 12 7 0 10
3 7 7 -10 9 13 34 25 27 5 -3 4 -12 -3 -20z m2318 -31 c-3 -10 -5 -2 -5 17 0
19 2 27 5 18 2 -10 2 -26 0 -35z m-1220 -13 c-9 -22 -18 -30 -37 -30 -14 0
-43 -3 -64 -7 -28 -4 -37 -3 -32 5 4 7 0 12 -11 13 -10 0 -13 3 -5 6 17 7 15
23 -3 23 -8 0 -15 5 -15 10 0 6 36 10 89 10 l89 0 -11 -30z m2720 8 c-3 -8 -6
-5 -6 6 -1 11 2 17 5 13 3 -3 4 -12 1 -19z m-2907 8 c0 -3 -4 -8 -10 -11 -5
-3 -10 -1 -10 4 0 6 5 11 10 11 6 0 10 -2 10 -4z m570 -27 c0 -22 -11 -24 -27
-8 -7 7 -3 -16 8 -50 18 -58 18 -64 2 -79 -9 -10 -14 -11 -12 -4 2 7 -14 33
-36 57 -22 23 -48 56 -58 73 l-17 30 40 -4 c21 -2 41 0 44 5 10 16 56 0 56
-20z m-320 10 c0 -4 -7 -12 -15 -19 -8 -7 -15 -10 -15 -7 0 3 -2 12 -5 19 -4
9 2 14 15 14 11 0 20 -3 20 -7z m-26 -77 c-7 -20 -13 -46 -14 -57 -1 -34 -14
-43 -69 -51 -40 -5 -52 -4 -47 5 5 7 0 11 -13 11 -14 0 -21 6 -21 19 0 22 30
33 53 19 20 -11 49 6 64 38 12 26 12 27 -11 18 -8 -3 -12 -12 -9 -20 3 -9 -1
-14 -12 -14 -9 0 -13 4 -10 10 3 5 -3 15 -15 22 -25 16 -26 31 -1 23 11 -3 22
-1 26 5 4 6 15 8 25 5 10 -3 21 -2 24 4 3 5 14 7 25 4 16 -4 17 -8 5 -41z
m-104 -24 c0 -10 -35 -9 -70 2 -19 5 -14 7 23 7 26 0 47 -4 47 -9z m-1010 -11
c0 -7 -9 -13 -20 -13 -25 0 -26 13 -2 19 9 3 18 5 20 6 1 0 2 -5 2 -12z m1088
-99 c-4 -29 -47 -39 -44 -11 1 16 18 30 39 32 5 1 7 -9 5 -21z m-58 -2 c0 -24
-16 -27 -35 -6 -18 19 -17 20 8 20 17 0 27 -5 27 -14z m-110 -6 c0 -5 -7 -10
-16 -10 -8 0 -12 5 -9 10 3 6 10 10 16 10 5 0 9 -4 9 -10z m17 -26 c-3 -3 -12
-4 -19 -1 -8 3 -5 6 6 6 11 1 17 -2 13 -5z m141 -31 c-2 -10 -13 -19 -26 -21
-17 -3 -22 2 -22 17 0 16 6 21 26 21 19 0 25 -5 22 -17z m-68 -23 c0 -5 -8
-10 -17 -10 -15 0 -16 2 -3 10 19 12 20 12 20 0z m50 -20 c8 -5 11 -12 8 -16
-4 -3 -14 1 -23 10 -18 17 -9 21 15 6z m-85 -10 c-3 -5 -14 -10 -23 -9 -14 0
-13 2 3 9 27 11 27 11 20 0z m3179 -22 c-5 -8 -2 -9 9 -5 13 5 17 0 17 -21 0
-20 -3 -23 -10 -12 -7 12 -12 11 -30 -5 l-21 -19 7 29 c4 17 12 33 18 37 16
11 18 10 10 -4z m-3164 -12 c0 -2 -7 -6 -15 -10 -8 -3 -15 -1 -15 4 0 6 7 10
15 10 8 0 15 -2 15 -4z m43 -46 c-6 -21 -25 -28 -20 -7 2 10 16 26 24 27 0 0
-1 -9 -4 -20z m3131 -16 c10 -4 16 -18 16 -35 0 -25 -4 -29 -26 -29 -20 0 -25
4 -20 17 4 9 1 20 -6 25 -10 6 -10 10 2 18 18 12 15 11 34 4z m-3139 -24 c-3
-6 4 -10 17 -11 13 0 17 -3 10 -6 -18 -7 -44 5 -37 17 3 5 8 10 11 10 3 0 2
-4 -1 -10z m43 -68 c3 -29 0 -32 -23 -32 -23 0 -25 3 -19 28 9 37 14 44 27 39
7 -2 13 -18 15 -35z m1042 -2 c12 -23 12 -24 -3 -11 -10 7 -17 20 -17 29 0 18
3 16 20 -18z m70 -20 c0 -5 -2 -10 -4 -10 -3 0 -8 5 -11 10 -3 6 -1 10 4 10 6
0 11 -4 11 -10z m1990 -15 c0 -14 -4 -25 -10 -25 -5 0 -9 11 -8 25 1 14 6 25
10 25 4 0 8 -11 8 -25z m-2044 -10 c-10 -8 -15 -19 -10 -26 4 -8 3 -10 -4 -5
-7 4 -12 11 -12 16 0 13 32 42 39 35 3 -4 -2 -13 -13 -20z m-649 -17 c-3 -7
-5 -2 -5 12 0 14 2 19 5 13 2 -7 2 -19 0 -25z m573 6 c0 -17 -22 -14 -28 4 -2
7 3 12 12 12 9 0 16 -7 16 -16z m-379 -22 c-6 -2 -9 -8 -6 -13 4 -5 -1 -6 -10
-3 -14 6 -14 8 2 26 12 14 19 16 22 7 2 -7 -1 -15 -8 -17z m-776 8 c3 -5 -1
-10 -9 -10 -9 0 -16 5 -16 10 0 6 4 10 9 10 6 0 13 -4 16 -10z m178 -7 c-7 -2
-13 -12 -13 -20 0 -9 6 -13 15 -9 12 4 15 -3 15 -29 0 -18 4 -36 9 -39 12 -8
20 -56 10 -56 -5 0 -9 10 -9 23 0 12 -7 31 -15 41 -16 21 -18 17 -16 -24 l1
-25 -14 25 c-9 14 -15 35 -16 47 0 17 -4 21 -17 17 -14 -5 -15 -4 -4 4 8 6 11
17 8 25 -6 17 6 25 38 25 11 0 14 -2 8 -5z m1022 -13 c-3 -5 -11 -10 -16 -10
-6 0 -7 5 -4 10 3 6 11 10 16 10 6 0 7 -4 4 -10z m2075 4 c0 -3 -5 -25 -11
-50 -8 -29 -17 -44 -28 -44 -14 0 -14 -2 -1 -10 13 -9 13 -10 0 -10 -41 0 -55
64 -21 94 15 13 20 14 24 4 4 -8 6 -7 6 5 1 15 31 26 31 11z m-2573 -56 c-3
-8 -6 -5 -6 6 -1 11 2 17 5 13 3 -3 4 -12 1 -19z m728 -8 c3 -5 1 -10 -4 -10
-6 0 -11 5 -11 10 0 6 2 10 4 10 3 0 8 -4 11 -10z m-829 -51 c-9 -19 -15 -29
-16 -22 0 18 20 66 25 61 3 -3 -1 -20 -9 -39z m875 -34 c7 -13 3 -12 -10 5
-11 14 -21 30 -21 35 0 11 14 -7 31 -40z m1765 -19 c-12 -58 -55 -191 -68
-208 -7 -9 -26 -20 -43 -24 l-30 -7 19 22 c11 11 25 21 32 21 7 0 16 10 20 23
10 31 12 57 3 52 -7 -5 -19 29 -19 58 0 9 7 17 15 17 18 0 20 16 3 24 -10 5
-10 7 0 12 6 3 12 14 12 23 0 25 7 29 36 23 23 -4 25 -8 20 -36z m-3046 30 c0
-2 -7 -6 -15 -10 -8 -3 -15 -1 -15 4 0 6 7 10 15 10 8 0 15 -2 15 -4z m1343
-77 c18 -16 44 -37 60 -45 15 -8 27 -17 27 -19 0 -12 -78 36 -104 64 -38 40
-25 40 17 0z m-1328 -9 c18 -19 17 -20 -1 -20 -13 0 -20 7 -20 20 0 11 1 20 2
20 0 0 9 -9 19 -20z m35 10 c0 -5 -5 -10 -11 -10 -5 0 -7 5 -4 10 3 6 8 10 11
10 2 0 4 -4 4 -10z m45 -130 c4 -6 -9 -10 -32 -9 -30 0 -34 2 -18 9 27 12 43
12 50 0z m19 -45 c3 -10 -1 -15 -13 -15 -11 0 -26 -3 -35 -6 -12 -4 -16 0 -16
15 0 17 6 21 29 21 16 0 31 -6 35 -15z m-11 -66 c3 -10 4 -19 2 -19 -7 0 -35
32 -35 40 0 17 28 -1 33 -21z m2787 -59 c0 -5 -4 -10 -10 -10 -5 0 -10 5 -10
10 0 6 5 10 10 10 6 0 10 -4 10 -10z m-2760 -16 c0 -8 -5 -12 -10 -9 -6 4 -8
11 -5 16 9 14 15 11 15 -7z m2766 -35 c3 -6 -6 -23 -21 -39 -15 -15 -27 -32
-27 -37 1 -4 -7 -7 -16 -5 -14 2 -14 1 -3 -7 12 -7 11 -13 -5 -33 -10 -13 -27
-22 -36 -20 -10 2 -18 -2 -18 -8 0 -6 5 -8 10 -5 6 3 10 0 10 -8 0 -7 -12 -20
-27 -28 -44 -22 -50 -22 -24 0 13 12 18 21 12 21 -7 0 -3 10 8 22 11 11 18 25
15 30 -3 5 0 15 6 23 10 12 10 15 0 15 -8 0 -10 3 -6 8 4 4 13 7 19 7 7 0 19
14 27 32 18 38 60 56 76 32z m-2708 -25 c12 -4 22 -11 22 -16 0 -5 -4 -7 -9
-4 -5 4 -11 1 -13 -5 -3 -9 -9 -9 -26 0 -41 22 -25 38 26 25z m27 -84 c-3 -5
-12 -10 -18 -10 -7 0 -6 4 3 10 19 12 23 12 15 0z m42 -47 c-4 -3 -1 -13 6
-22 8 -9 17 -25 21 -35 7 -19 6 -19 -13 -2 -11 10 -18 23 -15 27 3 5 -2 6 -10
3 -11 -4 -16 0 -16 11 0 10 -5 13 -12 9 -7 -4 -8 -3 -4 4 4 7 17 12 28 12 12
0 18 -3 15 -7z m778 -3613 c-3 -5 -10 -10 -16 -10 -5 0 -9 5 -9 10 0 6 7 10
16 10 8 0 12 -4 9 -10z m12 -60 c0 -27 -2 -29 -15 -16 -12 12 -12 17 -1 30 8
8 14 15 15 16 0 0 1 -14 1 -30z"/>
<path d="M13105 7210 c-3 -6 1 -7 9 -4 18 7 21 14 7 14 -6 0 -13 -4 -16 -10z"/>
<path d="M12720 7101 c0 -6 17 -7 38 -4 51 8 53 13 4 13 -23 0 -42 -4 -42 -9z"/>
<path d="M12623 7083 c9 -2 23 -2 30 0 6 3 -1 5 -18 5 -16 0 -22 -2 -12 -5z"/>
<path d="M12959 7049 c-9 -6 -1 -9 24 -9 20 0 37 4 37 9 0 11 -44 11 -61 0z"/>
<path d="M12690 7011 c0 -6 4 -13 10 -16 6 -3 7 1 4 9 -7 18 -14 21 -14 7z"/>
<path d="M12883 7013 c13 -12 -16 -33 -47 -34 -27 -1 -25 -2 13 -10 49 -9 65
-4 57 18 -3 8 -1 11 4 8 6 -3 10 -2 10 3 0 6 -7 13 -16 16 -20 8 -29 8 -21 -1z"/>
<path d="M12590 6920 c0 -5 4 -10 9 -10 6 0 13 5 16 10 3 6 -1 10 -9 10 -9 0
-16 -4 -16 -10z"/>
<path d="M12880 6921 c0 -5 5 -13 10 -16 6 -3 10 -2 10 4 0 5 -4 13 -10 16 -5
3 -10 2 -10 -4z"/>
<path d="M12530 6909 c0 -5 5 -7 10 -4 6 3 10 8 10 11 0 2 -4 4 -10 4 -5 0
-10 -5 -10 -11z"/>
<path d="M12610 6896 c0 -7 8 -20 17 -27 15 -12 16 -12 10 4 -4 10 -7 23 -7
28 0 5 -4 9 -10 9 -5 0 -10 -6 -10 -14z"/>
<path d="M12678 6903 c7 -3 16 -2 19 1 4 3 -2 6 -13 5 -11 0 -14 -3 -6 -6z"/>
<path d="M12630 6846 c0 -2 7 -9 15 -16 13 -11 14 -10 9 4 -5 14 -24 23 -24
12z"/>
<path d="M12388 6673 c7 -3 16 -2 19 1 4 3 -2 6 -13 5 -11 0 -14 -3 -6 -6z"/>
<path d="M12111 6411 c-14 -4 -26 -12 -29 -19 -6 -19 23 -14 43 8 10 11 16 20
14 19 -2 -1 -15 -4 -28 -8z"/>
<path d="M12075 6339 c-10 -15 3 -25 16 -12 7 7 7 13 1 17 -6 3 -14 1 -17 -5z"/>
<path d="M11938 6333 c6 -2 9 -10 6 -15 -5 -7 -2 -8 7 -3 7 5 33 10 57 12 72
4 61 13 -14 12 -38 0 -63 -3 -56 -6z"/>
<path d="M11892 6280 c-12 -20 -6 -25 22 -14 19 7 21 34 3 34 -7 0 -18 -9 -25
-20z"/>
<path d="M12057 6229 c-4 -16 -3 -18 9 -8 16 13 19 29 5 29 -5 0 -11 -9 -14
-21z"/>
<path d="M11821 6231 c-10 -6 -10 -10 -1 -16 13 -8 24 -1 19 14 -3 6 -10 7
-18 2z"/>
<path d="M11866 6211 c-4 -5 -2 -12 3 -15 5 -4 12 -2 15 3 4 5 2 12 -3 15 -5
4 -12 2 -15 -3z"/>
<path d="M11917 6213 c-2 -5 -7 -20 -11 -35 -5 -21 -3 -26 8 -22 19 7 29 34
13 34 -8 0 -8 3 2 9 8 5 9 11 3 15 -6 3 -13 3 -15 -1z"/>
<path d="M6534 7201 c3 -5 21 -9 38 -9 18 0 38 -1 43 -2 6 -1 21 -1 35 0 17 2
11 5 -20 11 -62 11 -102 11 -96 0z"/>
<path d="M6585 7170 c-3 -6 1 -7 9 -4 18 7 21 14 7 14 -6 0 -13 -4 -16 -10z"/>
<path d="M6585 7110 c-30 -8 -30 -8 8 -9 23 -1 36 3 32 9 -3 6 -7 9 -8 9 -1
-1 -15 -5 -32 -9z"/>
<path d="M6633 7003 c9 -2 23 -2 30 0 6 3 -1 5 -18 5 -16 0 -22 -2 -12 -5z"/>
<path d="M6586 6962 c-3 -6 -1 -14 5 -17 14 -9 20 -2 10 14 -6 8 -11 9 -15 3z"/>
<path d="M6780 6950 c-24 -8 -23 -8 8 -9 20 -1 31 3 27 9 -3 6 -7 10 -8 9 -1
-1 -13 -5 -27 -9z"/>
<path d="M6738 6923 c7 -3 16 -2 19 1 4 3 -2 6 -13 5 -11 0 -14 -3 -6 -6z"/>
<path d="M6478 6863 c6 -2 18 -2 25 0 6 3 1 5 -13 5 -14 0 -19 -2 -12 -5z"/>
<path d="M6600 6861 c0 -5 9 -7 20 -4 11 3 20 7 20 9 0 2 -9 4 -20 4 -11 0
-20 -4 -20 -9z"/>
<path d="M6390 6830 c0 -6 7 -10 15 -10 8 0 15 2 15 4 0 2 -7 6 -15 10 -8 3
-15 1 -15 -4z"/>
<path d="M6360 6815 c-7 -9 -8 -15 -2 -15 5 0 12 7 16 15 3 8 4 15 2 15 -2 0
-9 -7 -16 -15z"/>
<path d="M6468 6823 c7 -3 16 -2 19 1 4 3 -2 6 -13 5 -11 0 -14 -3 -6 -6z"/>
<path d="M6528 6783 c7 -3 16 -2 19 1 4 3 -2 6 -13 5 -11 0 -14 -3 -6 -6z"/>
<path d="M6405 6770 c-4 -7 3 -9 20 -6 37 7 44 16 12 16 -14 0 -29 -5 -32 -10z"/>
<path d="M6608 6723 c7 -3 16 -2 19 1 4 3 -2 6 -13 5 -11 0 -14 -3 -6 -6z"/>
<path d="M6506 6686 c3 -8 13 -12 25 -9 23 6 15 23 -11 23 -12 0 -17 -5 -14
-14z"/>
<path d="M6614 6692 c3 -6 0 -13 -6 -16 -7 -3 0 -4 15 -3 34 3 40 21 8 25 -13
2 -21 0 -17 -6z"/>
<path d="M6280 6326 c0 -2 8 -10 18 -17 15 -13 16 -12 3 4 -13 16 -21 21 -21
13z"/>
<path d="M6360 6090 c0 -5 7 -10 15 -10 8 0 15 5 15 10 0 6 -7 10 -15 10 -8 0
-15 -4 -15 -10z"/>
<path d="M6543 6010 c-9 -23 -8 -30 1 -30 18 0 36 21 36 42 0 29 -25 21 -37
-12z"/>
<path d="M6476 6001 c-3 -5 4 -11 16 -14 30 -8 35 -1 9 12 -11 6 -22 7 -25 2z"/>
<path d="M8397 5905 c3 -38 6 -77 8 -85 14 -80 15 -113 4 -126 -9 -11 -8 -14
3 -14 10 0 18 -24 27 -87 21 -153 21 -154 8 -146 -8 4 -7 1 1 -10 12 -14 11
-19 -4 -34 -17 -17 -17 -18 3 -21 21 -3 33 -28 33 -71 0 -17 3 -22 10 -15 7 7
8 19 1 36 -5 14 -11 54 -12 89 -2 35 -6 71 -11 80 -4 9 -9 38 -12 65 -3 37 0
51 12 62 9 7 12 11 6 8 -7 -3 -16 0 -21 7 -10 12 -36 157 -32 173 2 8 -8 66
-25 139 -3 11 -3 -11 1 -50z"/>
<path d="M8310 5940 c0 -5 5 -10 10 -10 6 0 10 5 10 10 0 6 -4 10 -10 10 -5 0
-10 -4 -10 -10z"/>
<path d="M6305 5920 c3 -5 10 -10 16 -10 5 0 9 5 9 10 0 6 -7 10 -16 10 -8 0
-12 -4 -9 -10z"/>
<path d="M6380 5919 c0 -5 5 -7 10 -4 6 3 10 8 10 11 0 2 -4 4 -10 4 -5 0 -10
-5 -10 -11z"/>
<path d="M8155 5900 c-3 -5 3 -10 15 -10 12 0 18 5 15 10 -3 6 -10 10 -15 10
-5 0 -12 -4 -15 -10z"/>
<path d="M8316 5881 c-3 -4 1 -17 10 -27 14 -18 15 -18 5 2 -6 12 -7 24 -4 28
3 3 4 6 0 6 -3 0 -8 -4 -11 -9z"/>
<path d="M8360 5770 c0 -5 5 -10 10 -10 6 0 10 5 10 10 0 6 -4 10 -10 10 -5 0
-10 -4 -10 -10z"/>
<path d="M8075 5709 c-11 -17 1 -21 15 -4 8 9 8 15 2 15 -6 0 -14 -5 -17 -11z"/>
<path d="M8315 5710 c3 -5 8 -10 11 -10 2 0 4 5 4 10 0 6 -5 10 -11 10 -5 0
-7 -4 -4 -10z"/>
<path d="M8465 5700 c3 -5 8 -10 11 -10 2 0 4 5 4 10 0 6 -5 10 -11 10 -5 0
-7 -4 -4 -10z"/>
<path d="M7908 5663 c7 -3 16 -2 19 1 4 3 -2 6 -13 5 -11 0 -14 -3 -6 -6z"/>
<path d="M8172 5654 c-14 -16 -5 -18 17 -5 7 5 9 11 5 14 -5 3 -15 -1 -22 -9z"/>
<path d="M8129 5643 c-8 -53 -7 -63 9 -63 13 0 12 -4 -7 -19 l-24 -19 21 -6
c26 -9 50 -46 30 -46 -8 0 -6 -5 5 -11 9 -6 15 -14 12 -20 -4 -5 -2 -9 4 -9 6
0 15 9 21 20 9 16 8 22 -5 26 -8 4 -15 18 -15 33 0 53 -45 153 -51 114z"/>
<path d="M8303 5622 c-8 -5 1 -8 22 -9 19 -1 32 3 29 8 -6 11 -35 11 -51 1z"/>
<path d="M8480 5605 c0 -8 4 -15 10 -15 5 0 7 7 4 15 -4 8 -8 15 -10 15 -2 0
-4 -7 -4 -15z"/>
<path d="M7801 5596 c-11 -14 -11 -16 5 -17 11 0 27 -2 37 -4 9 -2 17 1 17 7
0 6 -7 8 -15 4 -8 -3 -18 2 -23 10 -8 14 -10 14 -21 0z"/>
<path d="M8202 5595 c10 -11 48 -14 48 -4 0 5 -12 9 -27 9 -14 0 -24 -2 -21
-5z"/>
<path d="M8316 5578 c3 -4 -3 -8 -13 -9 -10 0 -13 -3 -6 -6 7 -2 22 2 34 11
22 15 22 15 1 13 -11 0 -18 -5 -16 -9z"/>
<path d="M8000 5560 c0 -5 5 -10 10 -10 6 0 10 5 10 10 0 6 -4 10 -10 10 -5 0
-10 -4 -10 -10z"/>
<path d="M7878 5543 c7 -3 16 -2 19 1 4 3 -2 6 -13 5 -11 0 -14 -3 -6 -6z"/>
<path d="M7790 5519 c0 -5 5 -7 10 -4 6 3 10 8 10 11 0 2 -4 4 -10 4 -5 0 -10
-5 -10 -11z"/>
<path d="M8018 5518 c9 -9 15 -9 24 0 9 9 7 12 -12 12 -19 0 -21 -3 -12 -12z"/>
<path d="M7815 5490 c-16 -7 -17 -9 -3 -9 9 -1 20 4 23 9 7 11 7 11 -20 0z"/>
<path d="M7453 5473 c9 -2 23 -2 30 0 6 3 -1 5 -18 5 -16 0 -22 -2 -12 -5z"/>
<path d="M7886 5472 c-2 -4 4 -8 14 -8 10 0 16 4 14 8 -3 4 -9 8 -14 8 -5 0
-11 -4 -14 -8z"/>
<path d="M8318 5473 c6 -2 18 -2 25 0 6 3 1 5 -13 5 -14 0 -19 -2 -12 -5z"/>
<path d="M7356 5449 c-27 -11 -56 -17 -63 -15 -8 4 -11 1 -8 -5 4 -6 -1 -17
-11 -24 -26 -19 -34 -18 -28 3 5 14 4 14 -4 2 -15 -20 -4 -33 24 -27 14 2 24
-1 24 -7 0 -6 7 -2 16 9 34 47 45 55 73 55 37 0 62 10 55 21 -7 12 -21 10 -78
-12z"/>
<path d="M8340 5450 c-11 -7 -7 -10 17 -10 17 0 35 5 38 10 8 13 -35 13 -55 0z"/>
<path d="M8180 5435 c-14 -16 -10 -18 14 -9 9 3 16 10 16 15 0 14 -16 11 -30
-6z"/>
<path d="M8205 5420 c-3 -5 1 -10 9 -10 9 0 16 5 16 10 0 6 -4 10 -9 10 -6 0
-13 -4 -16 -10z"/>
<path d="M8395 5410 c3 -5 12 -7 20 -3 21 7 19 13 -6 13 -11 0 -18 -4 -14 -10z"/>
<path d="M7150 5389 c0 -5 11 -9 25 -9 14 0 25 2 25 4 0 2 -11 6 -25 8 -14 3
-25 1 -25 -3z"/>
<path d="M6990 5372 c0 -8 -7 -11 -17 -8 -10 3 -25 1 -32 -4 -10 -5 12 -8 61
-8 59 1 75 5 71 15 -6 16 -6 16 -38 1 -22 -10 -28 -9 -36 3 -6 11 -9 11 -9 1z"/>
<path d="M7165 5360 c-19 -8 -19 -9 2 -9 12 -1 25 4 28 9 7 12 -2 12 -30 0z"/>
<path d="M6310 7139 c0 -5 5 -7 10 -4 6 3 10 8 10 11 0 2 -4 4 -10 4 -5 0 -10
-5 -10 -11z"/>
<path d="M13339 7008 c-17 -24 -18 -29 -6 -19 18 14 42 51 33 51 -3 0 -15 -15
-27 -32z"/>
<path d="M13286 7005 c-3 -8 -12 -15 -21 -15 -8 0 -15 -4 -15 -10 0 -25 43 -5
48 23 4 21 -4 23 -12 2z"/>
<path d="M13279 6928 c-12 -23 -12 -23 10 -4 23 21 26 26 11 26 -5 0 -15 -10
-21 -22z"/>
<path d="M13247 6893 c-4 -3 -7 -11 -7 -17 0 -6 5 -5 12 2 6 6 9 14 7 17 -3 3
-9 2 -12 -2z"/>
<path d="M13326 6855 c-3 -8 -3 -22 0 -30 4 -10 0 -15 -14 -15 -11 0 -25 -6
-31 -14 -6 -7 -22 -11 -36 -8 -20 3 -24 1 -19 -12 3 -9 11 -13 18 -9 12 8 13
8 66 21 32 7 35 11 35 45 1 38 -8 49 -19 22z"/>
<path d="M13141 6798 c11 -20 30 -20 36 -1 2 6 -7 13 -21 15 -22 4 -24 3 -15
-14z"/>
<path d="M13074 6774 c3 -19 62 -28 73 -11 3 6 1 7 -6 3 -6 -4 -18 -2 -26 4
-8 7 -15 9 -15 5 0 -4 -6 -2 -14 4 -12 10 -14 9 -12 -5z"/>
<path d="M12946 6634 c-5 -14 -4 -15 9 -4 17 14 19 20 6 20 -5 0 -12 -7 -15
-16z"/>
<path d="M13025 6610 c-3 -5 -1 -10 4 -10 6 0 11 5 11 10 0 6 -2 10 -4 10 -3
0 -8 -4 -11 -10z"/>
<path d="M12918 6603 c6 -2 12 -11 12 -19 0 -9 5 -12 10 -9 13 8 -6 35 -24 34
-7 0 -6 -2 2 -6z"/>
<path d="M13216 6561 c-4 -5 3 -7 14 -4 23 6 26 13 6 13 -8 0 -17 -4 -20 -9z"/>
<path d="M13060 6511 c0 -5 9 -7 20 -4 11 3 20 7 20 9 0 2 -9 4 -20 4 -11 0
-20 -4 -20 -9z"/>
<path d="M13226 6472 c-4 -12 -11 -20 -16 -17 -5 3 -11 1 -15 -5 -10 -16 21
-12 35 5 6 8 10 20 8 27 -3 8 -8 4 -12 -10z"/>
<path d="M12670 6389 c0 -5 5 -7 10 -4 6 3 10 8 10 11 0 2 -4 4 -10 4 -5 0
-10 -5 -10 -11z"/>
<path d="M12630 6359 c0 -5 5 -7 10 -4 6 3 10 8 10 11 0 2 -4 4 -10 4 -5 0
-10 -5 -10 -11z"/>
<path d="M12645 6290 c-3 -5 -1 -10 4 -10 6 0 11 5 11 10 0 6 -2 10 -4 10 -3
0 -8 -4 -11 -10z"/>
<path d="M13204 6175 c-10 -8 -14 -15 -8 -15 6 0 17 7 24 15 16 19 9 19 -16 0z"/>
<path d="M13058 6123 c7 -3 16 -2 19 1 4 3 -2 6 -13 5 -11 0 -14 -3 -6 -6z"/>
<path d="M12205 6100 c-3 -5 -1 -10 4 -10 6 0 11 5 11 10 0 6 -2 10 -4 10 -3
0 -8 -4 -11 -10z"/>
<path d="M12300 6068 c0 -5 30 -7 68 -7 69 2 62 6 -20 11 -27 2 -48 0 -48 -4z"/>
<path d="M12553 6063 c9 -2 23 -2 30 0 6 3 -1 5 -18 5 -16 0 -22 -2 -12 -5z"/>
<path d="M12660 6061 c0 -5 9 -7 20 -4 11 3 20 7 20 9 0 2 -9 4 -20 4 -11 0
-20 -4 -20 -9z"/>
<path d="M12073 6021 c0 -11 5 -18 9 -15 4 3 5 11 1 19 -7 21 -12 19 -10 -4z"/>
<path d="M12868 6033 c12 -2 32 -2 45 0 12 2 2 4 -23 4 -25 0 -35 -2 -22 -4z"/>
<path d="M12020 6014 c0 -8 5 -12 10 -9 6 3 10 10 10 16 0 5 -4 9 -10 9 -5 0
-10 -7 -10 -16z"/>
<path d="M12805 6016 c-16 -12 -17 -16 -6 -30 7 -9 28 -16 45 -15 28 0 29 1 9
9 -15 6 -21 15 -18 30 5 24 -4 25 -30 6z"/>
<path d="M11940 6000 c-13 -8 -12 -10 3 -10 9 0 17 5 17 10 0 12 -1 12 -20 0z"/>
<path d="M12920 6000 c0 -5 5 -10 11 -10 5 0 7 5 4 10 -3 6 -8 10 -11 10 -2 0
-4 -4 -4 -10z"/>
<path d="M11890 5970 c0 -5 4 -10 9 -10 6 0 13 5 16 10 3 6 -1 10 -9 10 -9 0
-16 -4 -16 -10z"/>
<path d="M12000 5925 c0 -8 4 -15 10 -15 5 0 7 7 4 15 -4 8 -8 15 -10 15 -2 0
-4 -7 -4 -15z"/>
<path d="M12040 5919 c0 -5 5 -7 10 -4 6 3 10 8 10 11 0 2 -4 4 -10 4 -5 0
-10 -5 -10 -11z"/>
<path d="M12010 5835 c-11 -13 -10 -14 4 -9 9 3 16 10 16 15 0 13 -6 11 -20
-6z"/>
<path d="M11989 5791 c6 -10 7 -22 3 -26 -4 -4 -1 -6 7 -3 8 2 16 14 18 26 2
17 -2 22 -17 22 -17 0 -19 -3 -11 -19z"/>
<path d="M12044 5803 c9 -10 125 -10 119 0 -2 4 -32 7 -65 7 -34 0 -58 -3 -54
-7z"/>
<path d="M11980 5736 c7 -7 14 -6 21 1 9 9 7 12 -9 10 -14 -1 -18 -5 -12 -11z"/>
<path d="M11917 5720 c-4 -17 -2 -20 14 -15 11 4 19 2 19 -4 0 -6 -8 -11 -17
-12 -10 0 -4 -5 12 -10 42 -13 59 -5 43 20 -7 11 -16 17 -20 15 -4 -3 -8 0 -8
6 0 6 -4 8 -10 5 -5 -3 -10 -1 -10 4 0 19 -17 12 -23 -9z"/>
<path d="M11930 5630 c0 -5 5 -10 11 -10 5 0 7 5 4 10 -3 6 -8 10 -11 10 -2 0
-4 -4 -4 -10z"/>
<path d="M12943 5605 c-17 -18 -16 -22 2 -22 8 0 15 9 15 19 0 21 -1 22 -17 3z"/>
<path d="M12333 5543 c9 -2 23 -2 30 0 6 3 -1 5 -18 5 -16 0 -22 -2 -12 -5z"/>
<path d="M12070 5470 c-34 -5 -34 -6 -8 -11 15 -3 32 -2 40 2 19 12 7 16 -32
9z"/>
<path d="M12146 5354 c-8 -22 1 -31 16 -16 9 9 9 15 1 23 -7 7 -12 5 -17 -7z"/>
<path d="M12208 5273 c6 -2 18 -2 25 0 6 3 1 5 -13 5 -14 0 -19 -2 -12 -5z"/>
<path d="M12328 5243 c7 -3 16 -2 19 1 4 3 -2 6 -13 5 -11 0 -14 -3 -6 -6z"/>
<path d="M12270 5180 c0 -5 5 -10 11 -10 5 0 7 5 4 10 -3 6 -8 10 -11 10 -2 0
-4 -4 -4 -10z"/>
<path d="M8522 6390 c0 -14 2 -19 5 -12 2 6 2 18 0 25 -3 6 -5 1 -5 -13z"/>
<path d="M8532 6335 c0 -16 2 -22 5 -12 2 9 2 23 0 30 -3 6 -5 -1 -5 -18z"/>
<path d="M8542 6280 c0 -14 2 -19 5 -12 2 6 2 18 0 25 -3 6 -5 1 -5 -13z"/>
<path d="M8558 6175 c9 -41 18 -73 20 -70 6 6 -22 145 -29 145 -3 0 1 -34 9
-75z"/>
<path d="M8581 6048 c0 -20 -4 -45 -7 -55 -5 -15 -4 -16 5 -3 9 12 11 5 12
-30 0 -25 2 -70 6 -100 3 -30 6 -70 7 -87 1 -18 4 -33 8 -33 4 0 8 -10 11 -22
8 -48 -7 103 -23 232 -10 74 -18 118 -19 98z"/>
<path d="M8612 5660 c0 -14 2 -19 5 -12 2 6 2 18 0 25 -3 6 -5 1 -5 -13z"/>
<path d="M8631 5624 c0 -11 3 -14 6 -6 3 7 2 16 -1 19 -3 4 -6 -2 -5 -13z"/>
<path d="M8621 5584 c0 -11 3 -14 6 -6 3 7 2 16 -1 19 -3 4 -6 -2 -5 -13z"/>
<path d="M8641 5534 c0 -11 3 -14 6 -6 3 7 2 16 -1 19 -3 4 -6 -2 -5 -13z"/>
<path d="M8632 5475 c0 -16 2 -22 5 -12 2 9 2 23 0 30 -3 6 -5 -1 -5 -18z"/>
<path d="M8651 5454 c0 -11 3 -14 6 -6 3 7 2 16 -1 19 -3 4 -6 -2 -5 -13z"/>
<path d="M9315 4900 c-3 -5 -1 -10 4 -10 6 0 11 5 11 10 0 6 -2 10 -4 10 -3 0
-8 -4 -11 -10z"/>
<path d="M9225 4870 c6 -30 16 -40 12 -12 -2 12 -6 24 -10 28 -3 4 -4 -4 -2
-16z"/>
<path d="M8950 4793 c0 -18 2 -33 4 -33 9 0 13 39 5 51 -6 10 -9 4 -9 -18z"/>
<path d="M9130 4810 c0 -5 5 -10 11 -10 5 0 7 5 4 10 -3 6 -8 10 -11 10 -2 0
-4 -4 -4 -10z"/>
<path d="M9095 4760 c4 -6 11 -8 16 -5 14 9 11 15 -7 15 -8 0 -12 -5 -9 -10z"/>
<path d="M8925 4721 c-7 -24 -2 -34 20 -37 18 -3 18 4 1 35 l-14 24 -7 -22z"/>
<path d="M8855 4720 c-3 -5 -1 -10 4 -10 6 0 11 5 11 10 0 6 -2 10 -4 10 -3 0
-8 -4 -11 -10z"/>
<path d="M8971 4714 c0 -11 3 -14 6 -6 3 7 2 16 -1 19 -3 4 -6 -2 -5 -13z"/>
<path d="M8897 4689 c4 -13 8 -18 11 -10 2 7 -1 18 -6 23 -8 8 -9 4 -5 -13z"/>
<path d="M9001 4694 c0 -11 3 -14 6 -6 3 7 2 16 -1 19 -3 4 -6 -2 -5 -13z"/>
<path d="M10000 5981 c0 -5 -9 -13 -21 -16 -11 -4 -18 -9 -16 -11 6 -6 77 23
77 30 0 4 -9 6 -20 6 -11 0 -20 -4 -20 -9z"/>
<path d="M9986 5942 c-3 -5 1 -9 9 -9 8 0 12 4 9 9 -3 4 -7 8 -9 8 -2 0 -6 -4
-9 -8z"/>
<path d="M10026 5924 c-11 -8 -18 -14 -15 -15 60 -9 74 -4 46 19 -8 7 -18 6
-31 -4z"/>
<path d="M9991 5804 c0 -11 3 -14 6 -6 3 7 2 16 -1 19 -3 4 -6 -2 -5 -13z"/>
<path d="M10037 5735 c-4 -22 -9 -52 -13 -67 -4 -19 -2 -28 5 -28 7 0 11 8 10
18 -1 9 -1 26 0 37 1 17 3 18 11 5 8 -12 10 -10 9 10 0 14 -4 34 -8 45 -6 16
-9 12 -14 -20z"/>
<path d="M10012 5710 c0 -14 2 -19 5 -12 2 6 2 18 0 25 -3 6 -5 1 -5 -13z"/>
<path d="M10052 5660 c0 -14 2 -19 5 -12 2 6 2 18 0 25 -3 6 -5 1 -5 -13z"/>
<path d="M8155 5350 c3 -5 8 -10 11 -10 2 0 4 5 4 10 0 6 -5 10 -11 10 -5 0
-7 -4 -4 -10z"/>
<path d="M8095 5240 c-3 -5 -1 -10 4 -10 6 0 11 5 11 10 0 6 -2 10 -4 10 -3 0
-8 -4 -11 -10z"/>
<path d="M8500 5170 c0 -5 5 -10 11 -10 5 0 7 5 4 10 -3 6 -8 10 -11 10 -2 0
-4 -4 -4 -10z"/>
<path d="M8168 5093 c7 -3 16 -2 19 1 4 3 -2 6 -13 5 -11 0 -14 -3 -6 -6z"/>
<path d="M9240 56 c0 -9 5 -16 10 -16 6 0 10 4 10 9 0 6 -4 13 -10 16 -5 3
-10 -1 -10 -9z"/>
</g>
</svg>
